<svg width="1440" height="304" viewBox="0 0 1440 304" fill="none" xmlns="http://www.w3.org/2000/svg">
<path fill-rule="evenodd" clip-rule="evenodd" d="M0 86.8571L60.0833 101.333C120.167 115.81 240.333 144.762 360.5 123.048C480.667 101.333 600.833 28.9524 721 50.6667C841.167 72.381 961.333 188.19 1081.5 195.429C1201.67 202.667 1321.83 101.333 1381.92 50.6667L1442 0V304H1381.92C1321.83 304 1201.67 304 1081.5 304C961.333 304 841.167 304 721 304C600.833 304 480.667 304 360.5 304C240.333 304 120.167 304 60.0833 304H0V86.8571Z" fill="#F5F5F5"/>
</svg>
